# ProBuilder 4.0.4
# https://unity3d.com/unity/features/worldbuilding/probuilder
# 3/24/2019 8:04:59 PM

mtllib ./Room.mtl
o Room

g Room
v -5 12 27.5
v -25 12 27.5
v -5 12 26.5
v -25 12 26.5
v -25 -8.000001 27.5
v -25 -8.000001 26.5
v -5 -8.000001 27.5
v -5 -8.000001 26.5
v -5 -8 27
v -25 -8 27
v -5 -7 27
v -25 -7 27
v -25 -8 7
v -25 -7 7
v -5 -8 7
v -5 -7 7
v -25 -8 -13
v -25 -7 -13
v -5 -8 -13
v -5 -7 -13
v 15 -8 7
v 15 -7 7
v 15 -8 -13
v 15 -7 -13
v 15 -8 27
v 15 -7 27
v -25.5 12 27
v -25.5 12 7
v -24.5 12 27
v -24.5 12 7
v -25.5 -8.000001 7
v -24.5 -8.000001 7
v -25.5 -8.000001 27
v -24.5 -8.000001 27
v -25.5 12 7
v -25.5 12 -13
v -24.5 12 7
v -24.5 12 -13
v -25.5 -8.000001 -13
v -24.5 -8.000001 -13
v -5 12 -12.5
v -25 12 -12.5
v -5 12 -13.5
v -25 12 -13.5
v -25 -8.000001 -12.5
v -25 -8.000001 -13.5
v -5 -8.000001 -12.5
v -5 -8.000001 -13.5
v 14.5 12 27
v 14.5 12 7
v 15.5 12 27
v 15.5 12 7
v 14.5 -8.000001 7
v 15.5 -8.000001 7
v 14.5 -8.000001 27
v 15.5 -8.000001 27
v 14.5 12 -13
v 15.5 12 -13
v 14.5 -8.000001 -13
v 15.5 -8.000001 -13
v 15 12 -12.5
v 15 12 -13.5
v 15 -8.000001 -12.5
v 15 -8.000001 -13.5
v -5 11.5 27
v -25 11.5 27
v -5 12.5 27
v -25 12.5 27
v -25 11.5 7
v -25 12.5 7
v -5 11.5 7
v -5 12.5 7
v -25 11.5 -13
v -25 12.5 -13
v -5 11.5 -13
v -5 12.5 -13
v 15 11.5 7
v 15 12.5 7
v 15 11.5 -13
v 15 12.5 -13
v 15 11.5 27
v 15 12.5 27
v 15 12 27.5
v -5 12 27.5
v 15 12 26.5
v -5 12 26.5
v 15 -8.000001 27.5
v 15 -8.000001 26.5

vt 10 -0.5000018
vt -10 -0.5
vt 10 0.5
vt -10 0.5000018
vt -10 -0.5
vt 10 0.5
vt -10 10
vt 10 10
vt -10 -10
vt 10 -10
vt 20 -0.5
vt 0 -0.5
vt 20 0.5
vt 0 0.5
vt -20 -0.5
vt -20 0.5
vt -20 20
vt 0 20
vt -20 0
vt 0 0
vt 20 0
vt 20 20
vt 20 0.4999981
vt -10 0.4999985
vt -9.536743E-07 10
vt 20 10
vt -9.536743E-07 -10
vt 20 -10
vt -20 -10
vt -20 10
vt 9.999999 -0.4999995
vt 9.999999 0.4999996
vt -9.999999 -0.4999989
vt -9.999999 0.5000001
vt 0 -0.4999981
vt 10 -0.4999985

vn 0 1 0
vn -1 0 0
vn 0 -1 0
vn 1 0 0
vn 0 0 -1
vn 0 0 1

g Room
usemtl Room
f 3/3/1 4/4/1 2/2/1 1/1/1
f 4/6/2 6/4/2 5/5/2 2/1/2
f 6/3/3 8/4/3 7/2/3 5/1/3
f 8/3/4 3/4/4 1/2/4 7/1/4
f 8/9/5 6/10/5 4/8/5 3/7/5
f 1/8/6 2/7/6 5/9/6 7/10/6
f 11/13/6 12/14/6 10/12/6 9/11/6
f 12/13/2 14/14/2 13/12/2 10/11/2
f 14/14/5 16/16/5 15/15/5 13/12/5
f 16/14/4 11/16/4 9/15/4 15/12/4
f 16/19/1 14/20/1 12/18/1 11/17/1
f 9/22/3 10/18/3 13/20/3 15/21/3
f 16/13/6 14/14/6 13/12/6 15/11/6
f 14/13/2 18/14/2 17/12/2 13/11/2
f 18/14/5 20/16/5 19/15/5 17/12/5
f 20/14/4 16/16/4 15/15/4 19/12/4
f 20/19/1 18/20/1 14/18/1 16/17/1
f 15/22/3 13/18/3 17/20/3 19/21/3
f 22/13/6 16/14/6 15/12/6 21/11/6
f 16/13/2 20/14/2 19/12/2 15/11/2
f 20/14/5 24/16/5 23/15/5 19/12/5
f 24/14/4 22/16/4 21/15/4 23/12/4
f 24/19/1 20/20/1 16/18/1 22/17/1
f 21/22/3 15/18/3 19/20/3 23/21/3
f 26/13/6 11/14/6 9/12/6 25/11/6
f 11/13/2 16/14/2 15/12/2 9/11/2
f 16/14/5 22/16/5 21/15/5 15/12/5
f 22/14/4 26/16/4 25/15/4 21/12/4
f 22/19/1 16/20/1 11/18/1 26/17/1
f 25/22/3 9/18/3 15/20/3 21/21/3
f 29/23/1 30/14/1 28/12/1 27/11/1
f 30/6/5 32/24/5 31/2/5 28/1/5
f 32/14/3 34/16/3 33/15/3 31/12/3
f 34/6/6 29/4/6 27/5/6 33/1/6
f 34/27/4 32/28/4 30/26/4 29/25/4
f 27/25/2 28/30/2 31/29/2 33/27/2
f 37/23/1 38/14/1 36/12/1 35/11/1
f 38/6/5 40/24/5 39/2/5 36/1/5
f 40/14/3 32/16/3 31/15/3 39/12/3
f 32/6/6 37/4/6 35/5/6 31/1/6
f 32/27/4 40/28/4 38/26/4 37/25/4
f 35/25/2 36/30/2 39/29/2 31/27/2
f 43/3/1 44/4/1 42/2/1 41/1/1
f 44/6/2 46/24/2 45/2/2 42/1/2
f 46/3/3 48/4/3 47/2/3 45/1/3
f 48/6/4 43/4/4 41/5/4 47/1/4
f 48/9/5 46/10/5 44/8/5 43/7/5
f 41/8/6 42/7/6 45/9/6 47/10/6
f 51/23/1 52/14/1 50/12/1 49/11/1
f 52/32/5 54/24/5 53/2/5 50/31/5
f 54/14/3 56/16/3 55/15/3 53/12/3
f 56/6/6 51/34/6 49/33/6 55/1/6
f 56/27/4 54/28/4 52/26/4 51/25/4
f 49/25/2 50/30/2 53/29/2 55/27/2
f 52/23/1 58/14/1 57/35/1 50/11/1
f 58/6/5 60/24/5 59/5/5 57/36/5
f 60/14/3 54/16/3 53/15/3 59/12/3
f 54/6/6 52/4/6 50/5/6 53/1/6
f 54/27/4 60/28/4 58/26/4 52/25/4
f 50/25/2 57/30/2 59/29/2 53/27/2
f 62/3/1 43/4/1 41/2/1 61/1/1
f 43/6/2 48/24/2 47/2/2 41/1/2
f 48/3/3 64/4/3 63/2/3 47/1/3
f 64/6/4 62/4/4 61/5/4 63/1/4
f 64/9/5 48/10/5 43/8/5 62/7/5
f 61/8/6 41/7/6 47/9/6 63/10/6
f 67/13/6 68/14/6 66/12/6 65/11/6
f 68/13/2 70/14/2 69/12/2 66/11/2
f 70/14/5 72/16/5 71/15/5 69/12/5
f 72/14/4 67/16/4 65/15/4 71/12/4
f 72/19/1 70/20/1 68/18/1 67/17/1
f 65/22/3 66/18/3 69/20/3 71/21/3
f 72/13/6 70/14/6 69/12/6 71/11/6
f 70/13/2 74/14/2 73/12/2 69/11/2
f 74/14/5 76/16/5 75/15/5 73/12/5
f 76/14/4 72/16/4 71/15/4 75/12/4
f 76/19/1 74/20/1 70/18/1 72/17/1
f 71/22/3 69/18/3 73/20/3 75/21/3
f 78/13/6 72/14/6 71/12/6 77/11/6
f 72/13/2 76/14/2 75/12/2 71/11/2
f 76/14/5 80/16/5 79/15/5 75/12/5
f 80/14/4 78/16/4 77/15/4 79/12/4
f 80/19/1 76/20/1 72/18/1 78/17/1
f 77/22/3 71/18/3 75/20/3 79/21/3
f 82/13/6 67/14/6 65/12/6 81/11/6
f 67/13/2 72/14/2 71/12/2 65/11/2
f 72/14/5 78/16/5 77/15/5 71/12/5
f 78/14/4 82/16/4 81/15/4 77/12/4
f 78/19/1 72/20/1 67/18/1 82/17/1
f 81/22/3 65/18/3 71/20/3 77/21/3
f 85/3/1 86/4/1 84/2/1 83/1/1
f 86/6/2 8/24/2 7/5/2 84/36/2
f 8/3/3 88/4/3 87/2/3 7/1/3
f 88/6/4 85/4/4 83/5/4 87/1/4
f 88/9/5 8/10/5 86/8/5 85/7/5
f 83/8/6 84/7/6 7/9/6 87/10/6

